<svg xmlns="http://www.w3.org/2000/svg" xmlns:xlink="http://www.w3.org/1999/xlink" width="298" zoomAndPan="magnify" viewBox="0 0 223.5 35.25" height="47" preserveAspectRatio="xMidYMid meet" version="1.0"><defs><g/><clipPath id="07716ec11d"><path d="M 2.082031 1.398438 L 35.304688 1.398438 L 35.304688 32.898438 L 2.082031 32.898438 Z M 2.082031 1.398438 " clip-rule="nonzero"/></clipPath><clipPath id="3f911cca41"><path d="M 17.832031 1.398438 L 19.496094 1.398438 C 23.671875 1.398438 27.679688 3.058594 30.632812 6.011719 C 33.585938 8.964844 35.246094 12.972656 35.246094 17.148438 C 35.246094 21.324219 33.585938 25.332031 30.632812 28.285156 C 27.679688 31.238281 23.671875 32.898438 19.496094 32.898438 L 17.832031 32.898438 C 13.65625 32.898438 9.648438 31.238281 6.695312 28.285156 C 3.742188 25.332031 2.082031 21.324219 2.082031 17.148438 C 2.082031 12.972656 3.742188 8.964844 6.695312 6.011719 C 9.648438 3.058594 13.65625 1.398438 17.832031 1.398438 Z M 17.832031 1.398438 " clip-rule="nonzero"/></clipPath><clipPath id="dca13755e1"><path d="M 2.082031 0 L 34 0 L 34 34 L 2.082031 34 Z M 2.082031 0 " clip-rule="nonzero"/></clipPath><clipPath id="a4da2332e7"><path d="M 10 0 L 43 0 L 43 34.515625 L 10 34.515625 Z M 10 0 " clip-rule="nonzero"/></clipPath></defs><g clip-path="url(#07716ec11d)"><g clip-path="url(#3f911cca41)"><path fill="#f0eeee" d="M 2.082031 1.398438 L 35.304688 1.398438 L 35.304688 32.898438 L 2.082031 32.898438 Z M 2.082031 1.398438 " fill-opacity="1" fill-rule="nonzero"/></g></g><path stroke-linecap="butt" transform="matrix(0, -0.734375, 0.734375, 0, 9.481177, 27.159255)" fill="none" stroke-linejoin="miter" d="M -0.00122772 1.499036 L 28.355156 1.499036 " stroke="#000000" stroke-width="3" stroke-opacity="1" stroke-miterlimit="4"/><g clip-path="url(#dca13755e1)"><path stroke-linecap="butt" transform="matrix(-0.508561, -0.529785, 0.529785, -0.508561, 19.811749, 22.110667)" fill="none" stroke-linejoin="miter" d="M 0.00106964 1.499218 L 19.702618 1.499047 " stroke="#000000" stroke-width="3" stroke-opacity="1" stroke-miterlimit="4"/></g><path stroke-linecap="butt" transform="matrix(0, -0.734375, 0.734375, 0, 19.50568, 28.608896)" fill="none" stroke-linejoin="miter" d="M -0.000652538 1.497584 L 33.142966 1.497584 " stroke="#000000" stroke-width="3" stroke-opacity="1" stroke-miterlimit="4"/><g clip-path="url(#a4da2332e7)"><path stroke-linecap="butt" transform="matrix(-0.00544731, 0.734355, -0.734355, -0.00544731, 31.438805, 6.326934)" fill="none" stroke-linejoin="miter" d="M 1.238754 11.168429 C 10.074234 -1.721933 18.909571 -1.72364 27.750125 11.168587 " stroke="#232121" stroke-width="3" stroke-opacity="1" stroke-miterlimit="4"/></g><g fill="#f0eeee" fill-opacity="1"><g transform="translate(38.946787, 23.758177)"><g><path d="M 10.84375 0 L 8.03125 0 L 3.921875 -9.125 L 3.921875 0 L 1.125 0 L 1.125 -13.90625 L 3.921875 -13.90625 L 8.046875 -4.78125 L 8.046875 -13.90625 L 10.84375 -13.90625 Z M 10.84375 0 "/></g></g></g><g fill="#f0eeee" fill-opacity="1"><g transform="translate(54.830872, 23.758177)"><g><path d="M 7.75 -2.84375 L 3.921875 -2.84375 L 3.1875 0 L 0.203125 0 L 4.5625 -13.90625 L 7.125 -13.90625 L 11.5 0 L 8.5 0 Z M 4.53125 -5.1875 L 7.140625 -5.1875 L 5.84375 -10.140625 Z M 4.53125 -5.1875 "/></g></g></g><g fill="#f0eeee" fill-opacity="1"><g transform="translate(70.418992, 23.758177)"><g><path d="M 10.125 -11.5625 L 6.6875 -11.5625 L 6.6875 0 L 3.875 0 L 3.875 -11.5625 L 0.484375 -11.5625 L 0.484375 -13.90625 L 10.125 -13.90625 Z M 10.125 -11.5625 "/></g></g></g><g fill="#f0eeee" fill-opacity="1"><g transform="translate(84.947368, 23.758177)"><g><path d="M 10.875 0 L 8.078125 0 L 8.078125 -5.953125 L 3.921875 -5.953125 L 3.921875 0 L 1.125 0 L 1.125 -13.90625 L 3.921875 -13.90625 L 3.921875 -8.28125 L 8.078125 -8.28125 L 8.078125 -13.90625 L 10.875 -13.90625 Z M 10.875 0 "/></g></g></g><g fill="#f0eeee" fill-opacity="1"><g transform="translate(100.860095, 23.758177)"><g><path d="M 7.75 -2.84375 L 3.921875 -2.84375 L 3.1875 0 L 0.203125 0 L 4.5625 -13.90625 L 7.125 -13.90625 L 11.5 0 L 8.5 0 Z M 4.53125 -5.1875 L 7.140625 -5.1875 L 5.84375 -10.140625 Z M 4.53125 -5.1875 "/></g></g></g><g fill="#f0eeee" fill-opacity="1"><g transform="translate(116.448217, 23.758177)"><g><path d="M 10.84375 0 L 8.03125 0 L 3.921875 -9.125 L 3.921875 0 L 1.125 0 L 1.125 -13.90625 L 3.921875 -13.90625 L 8.046875 -4.78125 L 8.046875 -13.90625 L 10.84375 -13.90625 Z M 10.84375 0 "/></g></g></g><g fill="#f0eeee" fill-opacity="1"><g transform="translate(132.332303, 23.758177)"><g/></g></g><g fill="#f0eeee" fill-opacity="1"><g transform="translate(140.750447, 23.758177)"><g><path d="M 1.125 0 L 1.125 -13.90625 L 4.796875 -13.90625 C 6.421875 -13.90625 7.710938 -13.390625 8.671875 -12.359375 C 9.640625 -11.328125 10.132812 -9.914062 10.15625 -8.125 L 10.15625 -5.859375 C 10.15625 -4.035156 9.671875 -2.601562 8.703125 -1.5625 C 7.742188 -0.519531 6.414062 0 4.71875 0 Z M 3.921875 -11.5625 L 3.921875 -2.328125 L 4.765625 -2.328125 C 5.703125 -2.328125 6.359375 -2.570312 6.734375 -3.0625 C 7.117188 -3.5625 7.320312 -4.414062 7.34375 -5.625 L 7.34375 -8.046875 C 7.34375 -9.335938 7.160156 -10.238281 6.796875 -10.75 C 6.429688 -11.269531 5.816406 -11.539062 4.953125 -11.5625 Z M 3.921875 -11.5625 "/></g></g></g><g fill="#f0eeee" fill-opacity="1"><g transform="translate(155.708451, 23.758177)"><g><path d="M 10.15625 -13.90625 L 10.15625 -4.28125 C 10.144531 -2.832031 9.75 -1.722656 8.96875 -0.953125 C 8.1875 -0.191406 7.0625 0.1875 5.59375 0.1875 C 4.101562 0.1875 2.960938 -0.195312 2.171875 -0.96875 C 1.390625 -1.75 1 -2.875 1 -4.34375 L 1 -13.90625 L 3.828125 -13.90625 L 3.828125 -4.34375 C 3.828125 -3.550781 3.953125 -2.984375 4.203125 -2.640625 C 4.460938 -2.304688 4.925781 -2.140625 5.59375 -2.140625 C 6.257812 -2.140625 6.71875 -2.304688 6.96875 -2.640625 C 7.21875 -2.972656 7.347656 -3.519531 7.359375 -4.28125 L 7.359375 -13.90625 Z M 10.15625 -13.90625 "/></g></g></g><g fill="#f0eeee" fill-opacity="1"><g transform="translate(170.79057, 23.758177)"><g><path d="M 10.84375 0 L 8.03125 0 L 3.921875 -9.125 L 3.921875 0 L 1.125 0 L 1.125 -13.90625 L 3.921875 -13.90625 L 8.046875 -4.78125 L 8.046875 -13.90625 L 10.84375 -13.90625 Z M 10.84375 0 "/></g></g></g><g fill="#f0eeee" fill-opacity="1"><g transform="translate(186.674656, 23.758177)"><g><path d="M 10.84375 0 L 8.03125 0 L 3.921875 -9.125 L 3.921875 0 L 1.125 0 L 1.125 -13.90625 L 3.921875 -13.90625 L 8.046875 -4.78125 L 8.046875 -13.90625 L 10.84375 -13.90625 Z M 10.84375 0 "/></g></g></g></svg>