<svg xmlns="http://www.w3.org/2000/svg" xmlns:xlink="http://www.w3.org/1999/xlink" width="298" zoomAndPan="magnify" viewBox="0 0 223.5 35.25" height="47" preserveAspectRatio="xMidYMid meet" version="1.0"><defs><g/><clipPath id="a0bf14b02d"><path d="M 2.082031 1.574219 L 35.300781 1.574219 L 35.300781 32.722656 L 2.082031 32.722656 Z M 2.082031 1.574219 " clip-rule="nonzero"/></clipPath><clipPath id="b5a34b8c55"><path d="M 17.65625 1.574219 L 19.671875 1.574219 C 28.273438 1.574219 35.246094 8.546875 35.246094 17.148438 C 35.246094 25.75 28.273438 32.722656 19.671875 32.722656 L 17.65625 32.722656 C 9.054688 32.722656 2.082031 25.75 2.082031 17.148438 C 2.082031 8.546875 9.054688 1.574219 17.65625 1.574219 Z M 17.65625 1.574219 " clip-rule="nonzero"/></clipPath><clipPath id="7a97135287"><path d="M 2.082031 0 L 34 0 L 34 34 L 2.082031 34 Z M 2.082031 0 " clip-rule="nonzero"/></clipPath><clipPath id="24d8f6855c"><path d="M 10 0 L 43 0 L 43 34.515625 L 10 34.515625 Z M 10 0 " clip-rule="nonzero"/></clipPath></defs><g clip-path="url(#a0bf14b02d)"><g clip-path="url(#b5a34b8c55)"><path fill="#232121" d="M 2.082031 1.574219 L 35.300781 1.574219 L 35.300781 32.722656 L 2.082031 32.722656 Z M 2.082031 1.574219 " fill-opacity="1" fill-rule="nonzero"/></g></g><path stroke-linecap="butt" transform="matrix(0, -0.734375, 0.734375, 0, 9.481177, 27.333803)" fill="none" stroke-linejoin="miter" d="M 0.0024126 1.499036 L 28.353478 1.499036 " stroke="#f0eeee" stroke-width="3" stroke-opacity="1" stroke-miterlimit="4"/><g clip-path="url(#7a97135287)"><path stroke-linecap="butt" transform="matrix(-0.508561, -0.529785, 0.529785, -0.508561, 19.811749, 22.285214)" fill="none" stroke-linejoin="miter" d="M -0.000143103 1.498054 L 19.705243 1.501566 " stroke="#f0eeee" stroke-width="3" stroke-opacity="1" stroke-miterlimit="4"/></g><path stroke-linecap="butt" transform="matrix(0, -0.734375, 0.734375, 0, 19.50568, 28.783446)" fill="none" stroke-linejoin="miter" d="M -0.00232881 1.497584 L 33.14129 1.497584 " stroke="#f0eeee" stroke-width="3" stroke-opacity="1" stroke-miterlimit="4"/><g clip-path="url(#24d8f6855c)"><path stroke-linecap="butt" transform="matrix(-0.00544731, 0.734355, -0.734355, -0.00544731, 31.438805, 6.501482)" fill="none" stroke-linejoin="miter" d="M 1.235115 11.168456 C 10.075913 -1.721945 18.91125 -1.723653 27.746486 11.168614 " stroke="#f0eeee" stroke-width="3" stroke-opacity="1" stroke-miterlimit="4"/></g><g fill="#232121" fill-opacity="1"><g transform="translate(38.946787, 23.758177)"><g><path d="M 10.84375 0 L 8.03125 0 L 3.921875 -9.125 L 3.921875 0 L 1.125 0 L 1.125 -13.90625 L 3.921875 -13.90625 L 8.046875 -4.78125 L 8.046875 -13.90625 L 10.84375 -13.90625 Z M 10.84375 0 "/></g></g></g><g fill="#232121" fill-opacity="1"><g transform="translate(54.830872, 23.758177)"><g><path d="M 7.75 -2.84375 L 3.921875 -2.84375 L 3.1875 0 L 0.203125 0 L 4.5625 -13.90625 L 7.125 -13.90625 L 11.5 0 L 8.5 0 Z M 4.53125 -5.1875 L 7.140625 -5.1875 L 5.84375 -10.140625 Z M 4.53125 -5.1875 "/></g></g></g><g fill="#232121" fill-opacity="1"><g transform="translate(70.418992, 23.758177)"><g><path d="M 10.125 -11.5625 L 6.6875 -11.5625 L 6.6875 0 L 3.875 0 L 3.875 -11.5625 L 0.484375 -11.5625 L 0.484375 -13.90625 L 10.125 -13.90625 Z M 10.125 -11.5625 "/></g></g></g><g fill="#232121" fill-opacity="1"><g transform="translate(84.947368, 23.758177)"><g><path d="M 10.875 0 L 8.078125 0 L 8.078125 -5.953125 L 3.921875 -5.953125 L 3.921875 0 L 1.125 0 L 1.125 -13.90625 L 3.921875 -13.90625 L 3.921875 -8.28125 L 8.078125 -8.28125 L 8.078125 -13.90625 L 10.875 -13.90625 Z M 10.875 0 "/></g></g></g><g fill="#232121" fill-opacity="1"><g transform="translate(100.860095, 23.758177)"><g><path d="M 7.75 -2.84375 L 3.921875 -2.84375 L 3.1875 0 L 0.203125 0 L 4.5625 -13.90625 L 7.125 -13.90625 L 11.5 0 L 8.5 0 Z M 4.53125 -5.1875 L 7.140625 -5.1875 L 5.84375 -10.140625 Z M 4.53125 -5.1875 "/></g></g></g><g fill="#232121" fill-opacity="1"><g transform="translate(116.448217, 23.758177)"><g><path d="M 10.84375 0 L 8.03125 0 L 3.921875 -9.125 L 3.921875 0 L 1.125 0 L 1.125 -13.90625 L 3.921875 -13.90625 L 8.046875 -4.78125 L 8.046875 -13.90625 L 10.84375 -13.90625 Z M 10.84375 0 "/></g></g></g><g fill="#232121" fill-opacity="1"><g transform="translate(132.332303, 23.758177)"><g/></g></g><g fill="#232121" fill-opacity="1"><g transform="translate(140.750447, 23.758177)"><g><path d="M 1.125 0 L 1.125 -13.90625 L 4.796875 -13.90625 C 6.421875 -13.90625 7.710938 -13.390625 8.671875 -12.359375 C 9.640625 -11.328125 10.132812 -9.914062 10.15625 -8.125 L 10.15625 -5.859375 C 10.15625 -4.035156 9.671875 -2.601562 8.703125 -1.5625 C 7.742188 -0.519531 6.414062 0 4.71875 0 Z M 3.921875 -11.5625 L 3.921875 -2.328125 L 4.765625 -2.328125 C 5.703125 -2.328125 6.359375 -2.570312 6.734375 -3.0625 C 7.117188 -3.5625 7.320312 -4.414062 7.34375 -5.625 L 7.34375 -8.046875 C 7.34375 -9.335938 7.160156 -10.238281 6.796875 -10.75 C 6.429688 -11.269531 5.816406 -11.539062 4.953125 -11.5625 Z M 3.921875 -11.5625 "/></g></g></g><g fill="#232121" fill-opacity="1"><g transform="translate(155.708451, 23.758177)"><g><path d="M 10.15625 -13.90625 L 10.15625 -4.28125 C 10.144531 -2.832031 9.75 -1.722656 8.96875 -0.953125 C 8.1875 -0.191406 7.0625 0.1875 5.59375 0.1875 C 4.101562 0.1875 2.960938 -0.195312 2.171875 -0.96875 C 1.390625 -1.75 1 -2.875 1 -4.34375 L 1 -13.90625 L 3.828125 -13.90625 L 3.828125 -4.34375 C 3.828125 -3.550781 3.953125 -2.984375 4.203125 -2.640625 C 4.460938 -2.304688 4.925781 -2.140625 5.59375 -2.140625 C 6.257812 -2.140625 6.71875 -2.304688 6.96875 -2.640625 C 7.21875 -2.972656 7.347656 -3.519531 7.359375 -4.28125 L 7.359375 -13.90625 Z M 10.15625 -13.90625 "/></g></g></g><g fill="#232121" fill-opacity="1"><g transform="translate(170.79057, 23.758177)"><g><path d="M 10.84375 0 L 8.03125 0 L 3.921875 -9.125 L 3.921875 0 L 1.125 0 L 1.125 -13.90625 L 3.921875 -13.90625 L 8.046875 -4.78125 L 8.046875 -13.90625 L 10.84375 -13.90625 Z M 10.84375 0 "/></g></g></g><g fill="#232121" fill-opacity="1"><g transform="translate(186.674656, 23.758177)"><g><path d="M 10.84375 0 L 8.03125 0 L 3.921875 -9.125 L 3.921875 0 L 1.125 0 L 1.125 -13.90625 L 3.921875 -13.90625 L 8.046875 -4.78125 L 8.046875 -13.90625 L 10.84375 -13.90625 Z M 10.84375 0 "/></g></g></g></svg>