<?xml version="1.0" encoding="utf-8"?>
<svg viewBox="162.217 4.287 635.863 137.887" xmlns="http://www.w3.org/2000/svg">
  <ellipse style="stroke: rgb(247, 244, 244); fill: rgb(247, 244, 244);" cx="235.001" cy="73.096" rx="71.917" ry="67.891"/>
  <path d="M 247.49 99.389 L 239.492 99.389 L 216.641 49.731 L 208.027 99.389 L 199.722 99.389 L 210.84 35.405 L 218.838 35.405 L 241.733 85.283 L 250.391 35.405 L 258.608 35.405 Z" transform="matrix(1.420861, 0, 0, 1.280207, -88.96048, -16.298428)" style="fill: rgb(37, 37, 37);"/>
  <path style="fill: rgb(51, 51, 51);"/>
  <path d="M 349.347 111.119 Q 349.015 109.745 349.015 108.419 L 349.157 105.72 Q 342.1 112.256 334.19 112.066 Q 327.418 111.972 323.179 107.78 Q 318.94 103.588 319.318 97.289 Q 319.792 89.142 326.447 84.572 Q 333.101 80.001 343.947 80.001 L 352.899 80.049 L 353.467 75.975 Q 353.941 71.381 351.691 68.705 Q 349.441 66.029 344.942 65.934 Q 340.537 65.84 337.151 68.089 Q 333.764 70.339 333.006 74.034 L 324.386 74.081 Q 324.813 69.581 327.891 66.1 Q 330.97 62.619 335.801 60.701 Q 340.632 58.783 345.794 58.877 Q 353.799 59.067 358.251 63.732 Q 362.703 68.397 361.993 76.118 L 357.825 101.504 L 357.588 105.151 Q 357.493 107.756 358.156 110.314 L 358.062 111.119 Z M 335.896 104.488 Q 340.016 104.583 343.687 102.523 Q 347.357 100.462 350.01 96.815 L 351.857 86.253 L 345.368 86.206 Q 337.269 86.206 332.959 88.764 Q 328.649 91.321 328.081 96.01 Q 327.654 99.61 329.762 102.002 Q 331.87 104.393 335.896 104.488 Z" style="fill: rgb(247, 244, 244);"/>
  <path d="M 392.298 47.463 L 390.119 59.872 L 399.449 59.872 L 398.265 66.645 L 388.982 66.645 L 383.63 98.52 Q 383.488 99.752 383.583 100.794 Q 383.914 104.488 387.609 104.488 Q 389.172 104.488 391.777 104.015 L 391.113 111.166 Q 388.035 112.019 384.862 112.019 Q 379.746 111.924 377.189 108.254 Q 374.631 104.583 375.199 98.378 L 380.409 66.645 L 371.363 66.645 L 372.547 59.872 L 381.593 59.872 L 383.772 47.463 Z" style="fill: rgb(247, 244, 244);"/>
  <path d="M 416.879 66.124 Q 423.604 58.783 432.366 58.972 Q 439.566 59.067 443.047 63.922 Q 446.528 68.776 445.628 77.538 L 440.039 111.119 L 431.466 111.119 L 437.103 77.396 Q 437.387 75.076 437.15 73.086 Q 436.345 66.455 429.335 66.313 Q 421.473 66.124 415.789 74.555 L 409.443 111.119 L 400.87 111.119 L 413.516 38.369 L 422.089 38.369 Z" style="fill: rgb(247, 244, 244);"/>
  <path d="M 484.515 111.119 Q 484.183 109.745 484.183 108.419 L 484.325 105.72 Q 477.268 112.256 469.359 112.066 Q 462.586 111.972 458.347 107.78 Q 454.108 103.588 454.487 97.289 Q 454.96 89.142 461.615 84.572 Q 468.269 80.001 479.116 80.001 L 488.067 80.049 L 488.636 75.975 Q 489.109 71.381 486.859 68.705 Q 484.61 66.029 480.11 65.934 Q 475.705 65.84 472.319 68.089 Q 468.932 70.339 468.175 74.034 L 459.554 74.081 Q 459.981 69.581 463.059 66.1 Q 466.138 62.619 470.969 60.701 Q 475.8 58.783 480.963 58.877 Q 488.967 59.067 493.419 63.732 Q 497.871 68.397 497.161 76.118 L 492.993 101.504 L 492.756 105.151 Q 492.661 107.756 493.324 110.314 L 493.23 111.119 Z M 471.064 104.488 Q 475.184 104.583 478.855 102.523 Q 482.526 100.462 485.178 96.815 L 487.025 86.253 L 480.536 86.206 Q 472.437 86.206 468.127 88.764 Q 463.817 91.321 463.249 96.01 Q 462.823 99.61 464.93 102.002 Q 467.038 104.393 471.064 104.488 Z" style="fill: rgb(247, 244, 244);"/>
  <path d="M 521.837 59.825 L 520.606 66.313 Q 527.521 58.735 536.33 58.925 Q 543.577 59.114 547.035 63.945 Q 550.492 68.776 549.592 77.538 L 544.003 111.119 L 535.431 111.119 L 541.067 77.396 Q 541.351 75.076 541.114 73.086 Q 540.309 66.455 533.299 66.313 Q 525.579 66.171 519.753 74.555 L 513.407 111.119 L 504.834 111.119 L 513.738 59.872 Z" style="fill: rgb(247, 244, 244);"/>
  <path d="M 582.319 111.119 L 594.302 42.158 L 612.205 42.205 Q 620.636 42.205 626.722 46.421 Q 632.808 50.636 635.46 58.048 Q 638.113 65.461 637.023 74.649 L 636.55 78.107 Q 634.466 93.168 624.851 102.144 Q 615.236 111.119 600.696 111.119 Z M 601.88 49.641 L 592.502 103.683 L 601.264 103.73 Q 611.305 103.73 618.291 97.478 Q 625.277 91.226 627.361 80.333 Q 629.019 71.618 628.498 65.508 Q 627.787 58.167 623.619 54.023 Q 619.451 49.878 612.442 49.689 Z" style="fill: rgb(247, 244, 244);"/>
  <path d="M 675.713 106.051 Q 669.698 112.256 660.414 112.066 Q 653.073 111.877 649.544 106.809 Q 646.016 101.741 646.916 92.979 L 652.41 59.872 L 660.983 59.872 L 655.441 93.121 Q 655.204 95.205 655.346 97.194 Q 655.583 100.604 657.383 102.546 Q 659.183 104.488 662.404 104.63 Q 671.592 104.914 676.613 97.194 L 683.054 59.872 L 691.627 59.872 L 682.722 111.119 L 674.623 111.119 Z" style="fill: rgb(247, 244, 244);"/>
  <path d="M 712.515 59.825 L 711.284 66.313 Q 718.199 58.735 727.008 58.925 Q 734.255 59.114 737.712 63.945 Q 741.17 68.776 740.27 77.538 L 734.681 111.119 L 726.108 111.119 L 731.745 77.396 Q 732.029 75.076 731.792 73.086 Q 730.987 66.455 723.977 66.313 Q 716.257 66.171 710.431 74.555 L 704.084 111.119 L 695.512 111.119 L 704.416 59.872 Z" style="fill: rgb(247, 244, 244);"/>
  <path d="M 764.899 59.825 L 763.668 66.313 Q 770.583 58.735 779.393 58.925 Q 786.639 59.114 790.097 63.945 Q 793.554 68.776 792.654 77.538 L 787.065 111.119 L 778.493 111.119 L 784.129 77.396 Q 784.413 75.076 784.176 73.086 Q 783.371 66.455 776.361 66.313 Q 768.641 66.171 762.815 74.555 L 756.469 111.119 L 747.896 111.119 L 756.8 59.872 Z" style="fill: rgb(247, 244, 244);"/>
  <path style="fill: rgb(51, 51, 51);"/>
  <path style="fill: rgb(51, 51, 51);"/>
</svg>