<?xml version="1.0" encoding="utf-8"?>
<svg viewBox="73.904 71.073 199.346 199.211" xmlns="http://www.w3.org/2000/svg">
  <ellipse style="stroke: rgb(0, 0, 0); fill: rgb(247, 244, 244);" cx="173.627" cy="170.684" rx="98.996" ry="98.996"/>
  <path d="M 142.627 154 L 140.296 154 L 132.19 141.264 L 132.19 153.894 L 130.198 153.894 L 130.198 138.657 L 132.529 138.657 L 140.635 151.393 L 140.635 138.657 L 142.627 138.657 Z" transform="matrix(6.874256, 0, 0, 6.429365, -777.750305, -781.47467)" style="fill: rgb(37, 37, 37);"/>
  <path d="M 130.24 153.894 L 130.24 138.657 L 133.462 138.657 Q 134.765 138.657 135.883 138.79 Q 137 138.922 137.933 139.251 Q 138.865 139.579 139.57 140.125 Q 140.275 140.671 140.783 141.518 Q 141.281 142.366 141.535 143.531 Q 141.79 144.697 141.79 146.276 Q 141.79 147.854 141.535 149.02 Q 141.281 150.186 140.783 151.033 Q 140.275 151.881 139.57 152.426 Q 138.865 152.972 137.933 153.301 Q 137 153.629 135.883 153.762 Q 134.765 153.894 133.462 153.894 Z M 133.79 152.262 Q 135.411 152.262 136.54 151.939 Q 137.668 151.616 138.389 150.885 Q 139.098 150.154 139.422 149.025 Q 139.745 147.897 139.745 146.276 Q 139.745 144.655 139.422 143.526 Q 139.098 142.398 138.389 141.667 Q 137.668 140.935 136.54 140.612 Q 135.411 140.289 133.79 140.289 L 132.232 140.289 L 132.232 152.262 Z" transform="matrix(6.874256, 0, 0, 6.429365, -731.597351, -755.714905)" style="fill: rgb(37, 37, 37);"/>
</svg>